<svg version="1.1" viewBox="0.0 0.0 512.0 512.0" fill="none" stroke="none" stroke-linecap="square" stroke-miterlimit="10" xmlns:xlink="http://www.w3.org/1999/xlink" xmlns="http://www.w3.org/2000/svg"><clipPath id="p.0"><path d="m0 0l512.0 0l0 512.0l-512.0 0l0 -512.0z" clip-rule="nonzero"/></clipPath><g clip-path="url(#p.0)"><path fill="#000000" fill-opacity="0.0" d="m0 0l512.0 0l0 512.0l-512.0 0z" fill-rule="evenodd"/><path fill="#3e80ba" d="m181.83795 236.26254c8.447998 6.220993 24.651794 28.6474 34.558792 38.24762c9.906998 9.600189 15.283005 19.891388 24.88321 19.353577c9.600189 -0.53778076 25.329086 -17.482178 32.718002 -22.580414c7.388916 -5.0982056 7.2220154 -4.8309326 11.61554 -8.008942c4.393524 -3.1780396 13.455933 -13.315643 14.745605 -11.059219c1.2896729 2.2564392 2.3781738 10.897934 -7.007538 24.597763c-9.385742 13.699829 -36.634613 47.156433 -49.306824 57.601227c-12.672195 10.444794 -15.513596 11.825989 -26.726395 5.0675964c-11.212799 -6.758423 -31.948792 -28.56839 -40.5504 -45.61801c-8.601593 -17.049591 -11.904205 -47.07939 -11.059204 -56.679596c0.8450012 -9.600204 7.6812134 -7.1426086 16.129211 -0.92160034z" fill-rule="evenodd"/><path fill="#00e7ff" d="m72.97762 215.78189c-11.932022 1.0687408 -6.0545044 6.4112854 -11.753426 8.548386c-5.698921 2.1371002 -17.097576 2.3152924 -22.440113 4.274185c-5.3425407 1.9589081 -8.19079 3.0272522 -9.615118 7.479233c-1.4243279 4.4519806 -9.972309 -2.4938812 1.0691528 19.23265c11.04146 21.726532 40.96 91.714935 65.17961 111.12659c24.21962 19.411652 66.42535 7.124054 80.138084 5.3433533c13.712723 -1.7807312 1.7819214 -6.0545044 2.1383057 -16.027618c0.35638428 -9.973114 -1.2465363 -28.139435 0 -43.811096c1.2465363 -15.671631 6.766861 -38.108917 7.479233 -50.21872c0.71235657 -12.109802 0.17858887 -15.494659 -3.2050476 -22.44011c-3.3836365 -6.945465 -8.90477 -15.670837 -17.096771 -19.232666c-8.192001 -3.5618286 -16.739578 -1.4259338 -32.05522 -2.1383057c-15.315659 -0.71235657 -47.906677 -3.2046356 -59.83869 -2.1358795z" fill-rule="evenodd"/><path fill="#00e7ff" d="m179.2421 388.80188c0.37373352 12.133575 -0.5144043 47.044342 -0.4499054 59.606476c0.0644989 12.562134 1.5847778 10.473419 0.8369293 15.766357c-0.74783325 5.2929688 10.149704 12.593201 -5.32399 15.991333c-15.473679 3.3981628 -64.85306 4.641876 -87.518135 4.397583c-22.66507 -0.24432373 -40.54314 3.4194946 -48.472286 -5.863434c-7.9291477 -9.282898 1.3622398 -23.221802 0.89741135 -49.834106c-0.4648323 -26.612335 -11.159586 -96.94821 -3.6864014 -109.83972c7.4731827 -12.891541 25.02148 23.060547 48.525505 32.49063c23.504028 9.430054 76.6335 17.87564 92.49864 24.089783c15.865158 6.214142 2.318512 1.0614929 2.6922302 13.195099z" fill-rule="evenodd"/><path fill="#000000" d="m176.77121 133.65114c2.918808 -5.8368073 -0.69018555 -27.418617 2.3052063 -36.40442c2.995407 -8.985802 14.5920105 -12.748795 15.667206 -17.510399c1.0751953 -4.7615967 -5.375992 -8.678604 -9.216003 -11.059196c-3.8399963 -2.3806 -14.652466 -1.6105881 -13.82399 -3.2243958c0.8284607 -1.6138039 19.19516 -4.306843 18.79483 -6.458454c-0.4003296 -2.1516113 -15.529724 -4.9930077 -21.196808 -6.4511986c-5.6670685 -1.4581947 -11.884033 -0.6849518 -12.805634 -2.2979546c-0.92160034 -1.6130028 11.116043 -5.229656 7.2760468 -7.3800545c-3.8400116 -2.150402 -23.189972 -5.293358 -30.316055 -5.5223465c-7.126068 -0.22898865 -7.0643845 3.994812 -12.440384 4.148411c-5.3759995 0.15359879 -12.44281 -4.5322075 -19.815613 -3.2268105c-7.3728027 1.3054008 -17.278992 6.4512024 -24.421188 11.0592c-7.1421967 4.6080017 -13.670403 10.828598 -18.432003 16.588802c-4.7615967 5.7602005 -8.27787 10.063019 -10.1376 17.972404c-1.859726 7.9093933 -1.5420456 21.037155 -1.0207748 29.483948c0.52127457 8.446793 -0.6131897 13.8239975 4.148411 21.1968c4.7616005 7.3728027 6.050068 23.422989 24.421192 23.039993c18.371124 -0.38298035 68.970024 -21.34555 85.80555 -25.337952c16.835526 -3.9923859 12.288818 7.220413 15.207611 1.3836212z" fill-rule="evenodd"/><path stroke="#000000" stroke-width="1.0" stroke-linejoin="round" stroke-linecap="butt" d="m176.77121 133.65114c2.918808 -5.8368073 -0.69018555 -27.418617 2.3052063 -36.40442c2.995407 -8.985802 14.5920105 -12.748795 15.667206 -17.510399c1.0751953 -4.7615967 -5.375992 -8.678604 -9.216003 -11.059196c-3.8399963 -2.3806 -14.652466 -1.6105881 -13.82399 -3.2243958c0.8284607 -1.6138039 19.19516 -4.306843 18.79483 -6.458454c-0.4003296 -2.1516113 -15.529724 -4.9930077 -21.196808 -6.4511986c-5.6670685 -1.4581947 -11.884033 -0.6849518 -12.805634 -2.2979546c-0.92160034 -1.6130028 11.116043 -5.229656 7.2760468 -7.3800545c-3.8400116 -2.150402 -23.189972 -5.293358 -30.316055 -5.5223465c-7.126068 -0.22898865 -7.0643845 3.994812 -12.440384 4.148411c-5.3759995 0.15359879 -12.44281 -4.5322075 -19.815613 -3.2268105c-7.3728027 1.3054008 -17.278992 6.4512024 -24.421188 11.0592c-7.1421967 4.6080017 -13.670403 10.828598 -18.432003 16.588802c-4.7615967 5.7602005 -8.27787 10.063019 -10.1376 17.972404c-1.859726 7.9093933 -1.5420456 21.037155 -1.0207748 29.483948c0.52127457 8.446793 -0.6131897 13.8239975 4.148411 21.1968c4.7616005 7.3728027 6.050068 23.422989 24.421192 23.039993c18.371124 -0.38298035 68.970024 -21.34555 85.80555 -25.337952c16.835526 -3.9923859 12.288818 7.220413 15.207611 1.3836212z" fill-rule="evenodd"/><path fill="#f6b26b" d="m94.285576 95.97467c1.8432007 -1.612999 8.601601 -1.1521988 10.137604 0c1.5359955 1.1521988 -3.2256012 5.914612 -0.92160034 6.913208c2.3040009 0.9986038 5.9903946 -0.5373993 14.745598 -0.92160034c8.755203 -0.38420105 28.8768 -0.7692108 37.7856 -1.383606c8.908798 -0.6144028 12.748795 -2.8405914 15.667206 -2.3027954c2.918396 0.53780365 1.3058014 -0.46079254 1.8432007 5.529602c0.5373993 5.990402 1.2275848 20.428802 1.3811798 30.412796c0.15361023 9.984009 2.5354156 19.430603 -0.45957947 29.49121c-2.9950104 10.060593 -11.289398 24.574783 -17.510406 30.87239c-6.2210083 6.297592 -14.82341 5.9916077 -19.815613 6.913208c-4.9922028 0.92160034 -8.601593 -3.457016 -10.137596 -1.383606c-1.5360031 2.0733948 0.99819946 9.5997925 0.92160034 13.82399c-0.07659912 4.2241974 2.0746078 8.602814 -1.3811874 11.52121c-3.455803 2.918396 -11.827202 6.0661926 -19.353607 5.989197c-7.5263977 -0.07701111 -20.351791 -3.7634125 -25.804794 -6.4512024c-5.453003 -2.6878052 -6.913208 -4.913986 -6.913208 -9.675598c0 -4.7615967 6.529007 -11.751404 6.913208 -18.893997c0.38420105 -7.1426086 -3.2256012 -18.201813 -4.6080017 -23.961609c-1.3824005 -5.759796 -1.9197998 -8.139587 -3.6864014 -10.597183c-1.7666016 -2.457611 -5.5308075 -1.230011 -6.913208 -4.148407c-1.3824005 -2.9184113 -2.0725937 -9.906204 -1.3811874 -13.3619995c0.6913986 -3.4557953 3.1489944 -6.7583923 5.5295944 -7.3728027c2.3806 -0.61439514 6.373398 1.7666016 8.75399 3.6864014c2.3806 1.9197998 3.6864014 8.446793 5.529602 7.8323975c1.8432007 -0.6144104 4.7616043 -6.1427917 5.529602 -11.518799c0.76799774 -5.375992 -1.459404 -15.514801 -0.92160034 -20.737206c0.53780365 -5.222397 3.3034058 -7.217987 4.148407 -10.597191c0.8450012 -3.3791962 -0.92160034 -8.06501 0.92160034 -9.678009z" fill-rule="evenodd"/><path fill="#3f0101" d="m355.2968 211.97888c-9.676788 0.84458923 -27.263794 2.3797913 -35.942383 0.45959473c-8.678619 -1.9202118 -12.596405 -8.371414 -16.129211 -11.980804c-3.5328064 -3.6094055 -2.6099854 -7.8323975 -5.0675964 -9.675598c-2.457611 -1.8432007 -6.836212 0.6131897 -9.678009 -1.383606c-2.8417969 -1.9967957 -6.4512024 -7.371582 -7.3728027 -10.597183c-0.92160034 -3.2256012 3.3792114 -6.375412 1.8432007 -8.756409c-1.5359802 -2.381012 -8.985809 -1.9968109 -11.059204 -5.529602c-2.0733948 -3.5328064 0.0012207031 -11.212799 -1.3811951 -15.667206c-1.3823853 -4.4543915 -6.913208 -6.681793 -6.913208 -11.059204c0 -4.3773956 6.606018 -11.134987 6.913208 -15.205185c0.30722046 -4.070198 -5.4537964 -5.4525986 -5.0700073 -9.216003c0.38381958 -3.7633972 6.758423 -10.215408 7.3728027 -13.364403c0.6144104 -3.149002 -4.6849976 -2.995407 -3.6864014 -5.529602c0.9986267 -2.5342026 8.449219 -6.4499893 9.678009 -9.6755905c1.2288208 -3.2256012 -4.148407 -6.1452103 -2.3052063 -9.678009c1.8432007 -3.5327988 10.215424 -9.982796 13.36441 -11.518791c3.1490173 -1.5360031 4.4544067 3.7621918 5.529602 2.3027878c1.0751953 -1.459404 -0.53738403 -8.064201 0.92160034 -11.0592c1.4590149 -2.994995 4.453186 -5.7589912 7.8323975 -6.9107895c3.3792114 -1.1517982 9.447418 1.5359993 12.44281 0c2.9953918 -1.5359993 3.5328064 -6.4511986 5.529602 -9.216c1.9967957 -2.764801 3.4562073 -6.5277977 6.4512024 -7.372799c2.994995 -0.8450031 8.753998 1.4581909 11.518768 2.3027878c2.764801 0.8446007 2.9962158 3.3022003 5.070038 2.764801c2.0737915 -0.5373993 3.3025818 -5.451792 7.372772 -5.989189c4.070221 -0.5373993 13.208405 2.9953995 17.0484 2.764801c3.8399963 -0.23060226 2.1516113 -5.223612 5.9916077 -4.148411c3.8399963 1.0751991 12.210205 8.910007 17.0484 10.599609c4.838196 1.6895981 8.447998 -0.84580994 11.980804 -0.46200943c3.5327759 0.3837967 7.3728027 0.92160034 9.216003 2.764801c1.8432007 1.8431969 -0.46081543 5.759796 1.8432007 8.294399c2.3039856 2.5345993 9.5997925 4.6858063 11.980774 6.913208c2.381012 2.2274017 0.077819824 4.3008003 2.3052368 6.4512024c2.2273865 2.1503983 8.985779 3.4561996 11.059174 6.451195c2.0734253 2.9950027 -0.15478516 8.600395 1.3811951 11.518791c1.5360107 2.9184036 5.2236023 3.610611 7.8348083 5.9916153c2.611206 2.3809967 7.064392 4.5314026 7.8323975 8.294395c0.7680054 3.7630005 -3.3779907 10.136391 -3.2243958 14.283592c0.15359497 4.1472015 4.299591 6.913208 4.145996 10.599609c-0.15359497 3.6864014 -4.9140015 7.7557983 -5.0675964 11.518784c-0.15359497 3.7630005 4.9140015 7.3728027 4.145996 11.059204c-0.7680054 3.6864014 -7.6022034 6.2976074 -8.753998 11.059204c-1.1517944 4.7615967 4.300812 13.670395 1.8432007 17.510406c-2.4575806 3.8399963 -13.67038 3.071991 -16.588806 5.529587c-2.918396 2.457611 2.073822 5.145401 -0.92160034 9.216003c-2.9953918 4.0706024 -7.681183 11.751404 -17.050781 15.207611c-9.369598 3.4562073 -28.952606 3.8399963 -39.16681 5.529602c-10.214203 1.6896057 -12.441589 3.7633972 -22.118408 4.6080017z" fill-rule="evenodd"/><path fill="#783f04" d="m266.36032 318.91156c4.684601 -3.9935913 9.907013 -3.6875916 14.745605 -2.3052063c4.838623 1.3824158 14.439606 6.145233 14.286011 10.599609c-0.15359497 4.4544067 -8.372192 9.982788 -15.207611 16.1268c-6.835388 6.1440125 -19.660797 15.054016 -25.804794 20.737213c-6.143997 5.683197 -8.015015 8.695526 -11.059204 13.3619995c-3.0441742 4.666443 -3.4428864 13.561523 -7.205887 14.636749c-3.7630005 1.0751953 -12.349274 -4.7478943 -15.372101 -8.185577c-3.022812 -3.4376526 -4.9151917 -9.214783 -2.764801 -12.440369c2.150406 -3.2256165 9.830399 -1.7674255 15.667206 -6.913208c5.8368073 -5.145813 13.901001 -16.358612 19.353607 -23.961609c5.452606 -7.602997 8.677399 -17.66278 13.361969 -21.656403z" fill-rule="evenodd"/><path fill="#f1c232" d="m275.84067 327.612c-6.0057373 -1.1171265 -18.509827 2.3052063 -19.815613 -4.145996c-1.3058014 -6.4512024 5.759796 -19.662018 11.980804 -34.56122c6.2210083 -14.8992 16.82019 -40.93338 25.345215 -54.833984c8.524994 -13.900604 18.124786 -22.425598 25.80478 -28.569595c7.680023 -6.1440125 11.980804 -6.2205963 20.275208 -8.294403c8.294403 -2.0738068 14.669006 -4.9164124 29.49121 -4.148407c14.822205 0.7679901 44.69638 1.8444061 59.441986 8.756409c14.745605 6.9120026 20.122803 17.969986 29.031616 32.71559c8.908783 14.74559 19.505981 41.856995 24.421173 55.757996c4.9151917 13.901001 7.3740234 21.196808 5.0700073 27.64801c-2.3039856 6.4512024 -13.97879 8.524994 -18.894012 11.059204c-4.9151917 2.5341797 -6.466095 -4.592682 -10.597168 4.145996c-4.131073 8.738647 -13.9747925 26.260742 -14.18927 48.28601c-0.21447754 22.0253 12.134399 66.47171 12.902405 83.8656c0.7680054 17.39389 -0.15359497 17.081451 -8.294403 20.497742c-8.140808 3.4162903 -25.244812 0.0874939 -40.550385 0c-15.3055725 -0.08746338 -37.459076 1.3182983 -51.28305 -0.52490234c-13.824005 -1.8432007 -26.076935 -0.3305664 -31.66095 -10.534302c-5.5840454 -10.203705 -1.5360107 -32.409576 -1.8432007 -50.68799c-0.30722046 -18.278412 0.92160034 -42.78586 0 -58.98239c-0.92160034 -16.196533 -0.45999146 -32.38138 -5.529602 -38.196808c-5.0696106 -5.8154297 -18.036926 3.1796265 -24.888062 3.3041992c-6.8511047 0.124572754 -10.212982 -1.4396362 -16.218689 -2.5567627z" fill-rule="evenodd"/><path fill="#783f04" d="m443.30896 331.03415c5.5465393 -2.8377686 19.660797 -4.070587 23.961609 -3.6864014c4.300812 0.3842163 1.9197998 1.767395 1.8432007 5.9916077c-0.07659912 4.2242126 2.4757385 13.367249 -2.3027954 19.353607c-4.778534 5.9863586 -15.829651 10.885437 -26.368408 16.564606c-10.538727 5.6791687 -23.056915 12.053772 -36.863983 17.510406c-13.807068 5.4566345 -36.4552 11.696564 -45.978424 15.22937c-9.523193 3.5328064 -5.2473755 2.7418213 -11.160767 5.9674377c-5.9134216 3.225586 -18.329224 11.389374 -24.31961 13.386169c-5.990387 1.9967957 -6.920868 0.5184326 -11.622803 -1.4053955c-4.701935 -1.9238281 -14.685944 -6.6088257 -16.588806 -10.137573c-1.9028625 -3.528778 1.3912659 -7.659851 5.1716003 -11.035034c3.7803345 -3.3751526 16.512207 -7.3728027 17.510406 -9.216003c0.99819946 -1.8432007 -8.756409 -0.844574 -11.52121 -1.8432007c-2.764801 -0.9985962 -7.064392 -2.9195862 -5.0675964 -4.148407c1.9967957 -1.2287903 10.4436035 -2.6099854 17.0484 -3.2243652c6.6047974 -0.6144104 13.534943 -0.15078735 22.580414 -0.46203613c9.045471 -0.31121826 15.965515 4.5120544 31.692383 -1.405365c15.726868 -5.9174194 50.67108 -26.192627 62.668793 -34.099213c11.997742 -7.906555 3.7710876 -10.502441 9.317596 -13.34021z" fill-rule="evenodd"/><path fill="#783f04" d="m305.98917 121.19939c-0.5378113 4.0706024 -0.30722046 11.137009 0 17.050812c0.30718994 5.913803 -0.5378113 11.980804 1.8432007 18.432007c2.3809814 6.451187 6.5289917 15.129791 12.44281 20.275192c5.913788 5.145401 17.971191 8.139587 23.039978 10.5971985c5.068817 2.4575958 5.222412 3.6876068 7.3728027 4.148407c2.1504211 0.46080017 5.068817 -2.0746155 5.529602 -1.383606c0.46081543 0.69099426 -2.0733948 0.5373993 -2.764801 5.529587c-0.69140625 4.9922028 -1.92099 17.665222 -1.383606 24.423615c0.53741455 6.7584076 -0.7680054 14.437195 4.6080017 16.126785c5.376007 1.6896057 19.123016 -0.15238953 27.64801 -5.9891815c8.524994 -5.8368073 22.580414 -22.196213 23.502014 -29.031616c0.92160034 -6.8354034 -13.36441 -6.3746033 -17.972412 -11.980789c-4.6080017 -5.606201 -9.780426 -11.783661 -9.675598 -21.656403c0.10482788 -9.872726 11.610291 -30.898193 10.304504 -37.579987c-1.3058167 -6.681801 -13.684906 0.25398254 -18.139313 -2.5108185c-4.4544067 -2.764801 -4.3911133 -11.270851 -8.587097 -14.07798c-4.195984 -2.8071365 -12.874573 -1.1175308 -16.588806 -2.764801c-3.714203 -1.6472702 -3.7484741 -5.47155 -5.6965027 -7.11882c-1.947998 -1.6472702 -4.0713806 -3.3791962 -5.9916077 -2.764801c-1.9201965 0.6144028 -2.9953918 5.145401 -5.529602 6.4512024c-2.5341797 1.3058014 -7.141388 0.38500977 -9.675568 1.3836136c-2.5342102 0.9985962 -3.6864014 3.7633972 -5.529602 4.607994c-1.8432007 0.8446045 -4.0701904 -0.8458023 -5.529602 0.45959473c-1.4594116 1.305397 -2.6890259 3.3022003 -3.2268066 7.372795z" fill-rule="evenodd"/><path fill="#f6b26b" d="m181.28249 369.9507c7.9710693 -4.1326904 30.181396 -5.607422 37.323593 -4.148407c7.1421967 1.4589844 1.9967957 8.678192 5.529602 12.902405c3.5327911 4.224182 14.284805 9.447388 15.667191 12.44281c1.3824005 2.9953918 -5.760193 3.6864014 -7.3727875 5.529602c-1.6126099 1.8432007 -0.6131897 4.3007812 -2.3027954 5.529602c-1.6896057 1.2287903 -5.6074066 0.6143799 -7.8348083 1.8431702c-2.2274017 1.2288208 -2.8417969 5.222412 -5.529602 5.529602c-2.6878052 0.30722046 -2.933319 -0.52285767 -10.597183 -3.6864014c-7.6638794 -3.1635132 -31.238861 -9.304291 -35.386063 -15.294678c-4.1472015 -5.990387 2.531784 -16.515015 10.502853 -20.647705z" fill-rule="evenodd"/><path fill="#3e80ba" d="m24.609102 243.22842c1.5359993 -14.514999 11.443403 -9.675583 16.5888 -7.832382c5.145397 1.8432007 9.368389 10.827789 14.283588 18.891586c4.915203 8.063812 10.369011 18.892792 15.207611 29.49121c4.8386 10.598389 10.444801 25.727783 13.8239975 34.099182c3.3792038 8.371399 1.6130066 11.21402 6.4512024 16.129211c4.838196 4.9151917 18.277191 9.598999 22.577988 13.3619995c4.300804 3.7630005 -0.38298798 7.449402 3.2268143 9.216003c3.6098022 1.7666016 7.4497986 0.38500977 18.431992 1.383606c10.982208 0.9985962 40.549194 0.15359497 47.461197 4.6080017c6.9120026 4.4544067 -3.5315857 14.515381 -5.989197 22.118408c-2.4575958 7.602997 -5.6074066 19.122192 -8.756409 23.499573c-3.149002 4.377411 -4.2241974 2.611206 -10.1375885 2.764801c-5.9134064 0.15359497 -13.054794 0.99819946 -25.342789 -1.8432007c-12.28801 -2.8414001 -35.02202 -8.753998 -48.385216 -15.2052c-13.363197 -6.451172 -23.115791 -11.597809 -31.793991 -23.501984c-8.6782 -11.904205 -15.667202 -26.72641 -20.2752 -47.923218c-4.608 -21.196808 -8.9088 -64.742584 -7.372801 -79.2576z" fill-rule="evenodd"/><path fill="#783f04" d="m227.82132 368.12225c-5.068802 -0.23062134 -12.210205 0.5365906 -16.1268 1.3811951c-3.9165955 0.844574 -5.913391 2.3039856 -7.3728027 3.6864014c-1.4593964 1.3823853 -4.071396 4.1471863 -1.383606 4.6080017c2.6878052 0.4607849 12.518204 -1.8432007 17.510406 -1.8432007c4.9922028 0 8.833008 2.6877747 12.44281 1.8432007c3.6098022 -0.8446045 10.060989 -5.298218 9.215988 -6.910797c-0.8450012 -1.6126099 -9.217209 -2.5342102 -14.2859955 -2.764801z" fill-rule="evenodd"/><path fill="#783f04" d="m184.69974 394.37616c-0.8450012 1.4589844 -0.0012054443 5.2981873 1.3811951 6.910797c1.3824005 1.6125793 5.0700073 1.5359802 6.913208 2.764801c1.8432007 1.2287903 1.53479 3.9165955 4.145981 4.6080017c2.611206 0.69137573 8.833008 0.46200562 11.52121 -0.45959473c2.688202 -0.92160034 4.838608 -3.2268066 4.6080017 -5.0700073c-0.23059082 -1.8432007 -3.5340118 -5.1445923 -5.9916077 -5.989197c-2.4575958 -0.8446045 -6.0661926 1.6896057 -8.753983 0.92160034c-2.6878052 -0.7680054 -5.068802 -4.9151917 -7.3728027 -5.529602c-2.3040009 -0.6144104 -5.606201 0.3841858 -6.4512024 1.8432007z" fill-rule="evenodd"/><path fill="#efefef" fill-opacity="0.6863" d="m354.09952 77.03138l0 0c-14.70047 -8.416298 -19.463379 -23.53683 -10.638306 -33.77265c8.825104 -10.235821 27.896332 -11.7108345 42.5968 -3.2945366l0 0c-13.44339 -3.0599174 -26.770813 0.23573685 -33.766693 8.349941c-6.99588 8.114204 -6.282196 19.44867 1.808197 28.717247z" fill-rule="evenodd"/><path fill="#efefef" fill-opacity="0.6863" d="m367.35883 81.124054l0 0c-14.70047 -8.416298 -18.664154 -24.453026 -8.853149 -35.819035c9.810974 -11.366009 29.681458 -13.757225 44.381927 -5.340927c-14.524872 -6.2389603 -32.05847 -3.1371956 -41.032135 7.2587624c-8.973663 10.395954 -6.6219788 24.8824 5.503357 33.9012z" fill-rule="evenodd"/><path fill="#efefef" fill-opacity="0.6863" d="m313.64587 106.522575l0 0c-14.70047 -8.416298 -19.463379 -23.536827 -10.638306 -33.772644c8.825104 -10.235825 27.896332 -11.710838 42.5968 -3.2945404l0 0c-13.44339 -3.0599213 -26.770813 0.23573303 -33.766693 8.349945c-6.99588 8.114204 -6.282196 19.44867 1.808197 28.71724z" fill-rule="evenodd"/><path fill="#efefef" fill-opacity="0.6863" d="m327.25674 97.59653l0 0c-8.143768 -6.059738 -8.981995 -16.228897 -1.8722229 -22.713448c7.109741 -6.484558 19.47519 -6.828949 27.618958 -0.7692108l0 0c-8.257324 -4.3720245 -18.951904 -3.3235855 -25.31717 2.4819565c-6.3652954 5.805542 -6.546753 14.676735 -0.42956543 21.000702z" fill-rule="evenodd"/></g></svg>